<svg width="784" height="256" viewBox="0 0 784 256" fill="none" xmlns="http://www.w3.org/2000/svg">
<path d="M605.444 230.59C547.696 230.59 541.178 197.087 545.137 180.335L558.843 94.4438H536L541.482 63.3768H565.239L570.722 25H616.409L608.185 63.3768H640.166L633.77 94.4438H605.444C605.444 94.4438 593.565 156.578 591.738 170.284C589.91 183.99 589.179 192.762 608.185 194.955C627.191 197.147 633.16 182.467 633.77 174.852L658.44 25H699.558L689.507 94.4438C693.467 87.7431 706.868 77.4255 719.661 73.4279C734.28 68.8592 747.986 67.9455 769.002 81.6515C785.815 92.6163 785.145 117.287 782.708 128.252L767.175 226.021H724.229L737.935 140.13C740.676 130.384 740.311 110.343 716.919 108.15C693.528 105.957 684.025 126.729 682.197 137.389L672.146 183.076C668.491 197.696 663.192 230.59 605.444 230.59Z" fill="url(#paint0_linear)"/>
<path d="M127.06 255.997C58.8507 255.526 -0.457074 198.918 0.00265506 126.998C0.444649 57.7959 57.9517 -0.468968 129.11 0.00284555C198.267 0.462386 256.613 57.8668 255.995 128.194C256.568 197.883 197.934 256.489 127.06 255.997ZM127.06 255.997C58.8507 255.526 -0.457074 198.918 0.00265506 126.998C0.444649 57.7959 57.9517 -0.468968 129.11 0.00284555C198.267 0.462386 256.613 57.8668 255.995 128.194C256.568 197.883 197.934 256.489 127.06 255.997Z" fill="white"/>
<path d="M127.185 238.997C68.0324 238.589 16.6036 189.499 17.0023 127.131C17.386 67.1186 67.2554 16.5917 128.963 17.0025C188.935 17.401 239.532 67.1825 238.996 128.169C239.492 188.602 188.647 239.424 127.185 238.997ZM127.185 238.997C68.0324 238.589 16.6036 189.499 17.0023 127.131C17.386 67.1186 67.2554 16.5917 128.963 17.0025C188.935 17.401 239.532 67.1825 238.996 128.169C239.492 188.602 188.647 239.424 127.185 238.997Z" fill="#49A32B"/>
<path d="M169.327 127.956C169.043 133.246 164.421 137.639 159.866 136.873C159.844 136.873 159.821 136.873 159.798 136.873C154.753 136.879 150.658 132.794 150.653 127.749C150.825 122.69 155.02 118.703 160.08 118.789C165.125 118.814 169.6 123.077 169.327 127.956ZM88.2012 179.22C90.1035 179.276 92.0071 179.235 94.2009 179.235V193.021C80.5661 195.326 69.3348 191.455 66.5787 179.93C65.6351 175.692 65.055 171.381 64.8426 167.044C64.5498 162.452 65.0563 157.809 64.7064 153.225C63.7369 140.613 62.1028 136.307 50 135.711V120.015C50.8674 119.812 51.7471 119.662 52.6322 119.563C59.2677 119.236 62.0647 117.201 63.5489 110.665C64.2243 106.993 64.6247 103.275 64.7431 99.5429C65.2688 92.3259 65.0822 84.9917 66.2846 77.8918C68.0221 67.6246 74.3963 62.6367 84.9249 62.0784C87.9207 61.9177 90.926 62.0539 94.3207 62.0539V76.1448C92.9236 76.2442 91.6436 76.4471 90.3717 76.4089C81.7917 76.1461 81.3477 79.0683 80.7214 86.171C80.3306 90.6251 80.8698 95.1555 80.5661 99.6246C80.2488 104.072 79.6538 108.496 78.785 112.87C77.5472 119.209 73.65 123.923 68.2495 127.923C78.7333 134.746 79.9261 145.346 80.607 156.111C80.9733 161.895 80.8058 167.721 81.3927 173.477C81.8502 177.944 83.5877 179.084 88.2012 179.22ZM97.0373 118.789C97.0917 118.789 97.1448 118.789 97.1993 118.789C102.212 118.872 106.21 123.002 106.127 128.016C106.127 128.181 106.121 128.344 106.112 128.508C105.83 133.407 101.63 137.149 96.7309 136.867C96.5334 136.871 96.3374 136.867 96.1399 136.858C91.1506 136.61 87.3066 132.364 87.5544 127.375C87.8022 122.385 92.048 118.541 97.0373 118.789ZM128.273 118.789C133.756 118.747 137.397 122.3 137.425 127.719C137.455 133.285 134.003 136.845 128.557 136.868C123.017 136.893 119.371 133.389 119.341 128.002C119.324 127.727 119.32 127.452 119.328 127.177C119.482 122.391 123.487 118.635 128.273 118.789ZM193.673 111.923C195.132 117.37 197.971 119.285 203.705 119.546C204.644 119.59 205.58 119.749 206.868 119.892V135.584C206.171 135.813 205.456 135.985 204.73 136.096C197.046 136.574 193.544 139.727 192.768 147.431C192.272 152.35 192.313 157.323 191.972 162.259C191.829 167.678 191.337 173.083 190.496 178.439C188.535 188.142 182.477 192.983 172.467 193.574C169.246 193.765 166.001 193.604 162.527 193.604V179.578C164.397 179.463 166.047 179.303 167.701 179.264C173.682 179.121 175.797 177.193 176.09 171.253C176.414 164.728 176.555 158.194 176.847 151.667C177.27 142.234 179.853 133.806 188.642 127.922C183.613 124.337 179.575 119.994 178.53 114.139C177.265 107.042 176.856 99.788 176.175 92.5914C175.839 88.9938 175.855 85.3648 175.504 81.77C175.125 77.8891 172.459 76.5465 168.927 76.4593C166.903 76.4103 164.872 76.4498 162.285 76.4498V62.7538C178.794 60.0127 190.198 65.5058 191.258 81.3015C191.701 87.9344 191.636 94.5985 192.061 101.231C192.247 104.84 192.787 108.421 193.673 111.923Z" fill="white"/>
<path d="M428.632 122.416V139.984H402.28V169.36H382.84V139.984H356.344V122.416H382.84V93.184H402.28V122.416H428.632Z" fill="#633240"/>
<defs>
<linearGradient id="paint0_linear" x1="660" y1="25" x2="660" y2="230.59" gradientUnits="userSpaceOnUse">
<stop stop-color="#C45C7B"/>
<stop offset="1" stop-color="#A579B7"/>
</linearGradient>
</defs>
</svg>
